<svg id="Layer_1" data-name="Layer 1" xmlns="http://www.w3.org/2000/svg" viewBox="0 0 1039.22 335.96"><defs><style>.cls-1{fill:#f6eb3c;}.cls-2,.cls-3{fill:#0055a5;}.cls-3{font-size:147.33px;font-family:Calibri;}.cls-4{letter-spacing:-0.02em;}</style></defs><path className="cls-1" d="M1479.85,538.7H806.22a13.15,13.15,0,0,1-13.15-13.15V400.31a13.15,13.15,0,0,1,13.15-13.15h673.63A13.15,13.15,0,0,1,1493,400.31V525.55A13.15,13.15,0,0,1,1479.85,538.7Z" transform="translate(-453.78 -295.19)"/><path className="cls-1" d="M731.26,463.58A121.13,121.13,0,1,1,610.13,342.45,121.13,121.13,0,0,1,731.26,463.58ZM610.13,352.83A110.75,110.75,0,1,0,720.88,463.58,110.75,110.75,0,0,0,610.13,352.83Z" transform="translate(-453.78 -295.19)"/><path className="cls-2" d="M585,631.15c-.67-7.13-1.36-14.25-2-21.39-.09-1-.29-1.42-1.42-1.55a140.64,140.64,0,0,1-82.17-38.1c-22.51-21.14-36.93-46.94-42.88-77.28a143.78,143.78,0,0,1,114.4-168.72c1.79-.34,2.87.15,3.14,1.45.35,1.64-.61,2.36-2,2.82a117.63,117.63,0,0,0-44.81,26.53,121.34,121.34,0,0,0-38.07,92.89,116.83,116.83,0,0,0,11.32,46.56C514.9,524.3,537.82,545,569,556.54a77.2,77.2,0,0,0,9.42,2.9c-.74-8.26-1.48-16.39-2.24-24.87l66.93,42.66c-4.31,4-8.5,7.92-12.7,11.81l-44.59,41.44a5.49,5.49,0,0,0-.49.67Z" transform="translate(-453.78 -295.19)"/><path className="cls-2" d="M764.37,477.88A143.63,143.63,0,0,1,648.3,602.23c-1.34.26-2.56.2-3.08-1.33s.21-2.34,2.2-3a117.7,117.7,0,0,0,43.11-25.12c20.07-18.39,32.7-41,37.59-67.8a117.86,117.86,0,0,0-10.49-75.32c-11.66-23.5-29.33-41.26-52.56-53.43a116.94,116.94,0,0,0-23.1-9.07,1.34,1.34,0,0,0-1.11-.07c.73,8.08,1.46,16.21,2.23,24.68L576.15,349.1l14.21-13.2c14.36-13.35,44.16-40.71,44.28-40.71.77,7,.52,4.3.72,6.47q.67,7.36,1.4,14.75c.09,1,.66,1.16,1.47,1.26q7.2.88,14.29,2.4a138.18,138.18,0,0,1,30.1,10.26,141.46,141.46,0,0,1,33.09,21.46,145.38,145.38,0,0,1,31.86,39,142.09,142.09,0,0,1,13.36,32.79c2.07,7.8,3.81,15.69,4.06,23.82,0,.82.14,7.11.14,7.82v10.85C765.13,466.92,764.61,475.85,764.37,477.88Z" transform="translate(-453.78 -295.19)"/><text className="cls-3" transform="translate(365.31 211.62)">me<tspan className="cls-4" x="191" y="0">K</tspan><tspan x="265.09" y="0">ambio</tspan></text><path className="cls-2" d="M650.92,503.4a2.52,2.52,0,0,1-.39,1.4,2.83,2.83,0,0,1-1.51,1,13.43,13.43,0,0,1-3,.61,58.74,58.74,0,0,1-11.58-.14,6.65,6.65,0,0,1-2.94-1.08,5,5,0,0,1-1.4-1.72l-28-44v44a2.22,2.22,0,0,1-.43,1.37,3.24,3.24,0,0,1-1.5,1,12.65,12.65,0,0,1-2.87.61,47.57,47.57,0,0,1-9.14,0,12.69,12.69,0,0,1-2.91-.61,3.52,3.52,0,0,1-1.54-1,2.12,2.12,0,0,1-.46-1.37V416.12a2.11,2.11,0,0,1,.46-1.36,3.32,3.32,0,0,1,1.54-.93,14.91,14.91,0,0,1,2.91-.57,47.57,47.57,0,0,1,9.14,0,14.89,14.89,0,0,1,2.87.57,3.07,3.07,0,0,1,1.5.93,2.21,2.21,0,0,1,.43,1.36v39.49L629.2,416.2a4.87,4.87,0,0,1,3.08-2.51,13.49,13.49,0,0,1,2.94-.5q1.8-.15,4.59-.15a43.26,43.26,0,0,1,4.73.22,14,14,0,0,1,3,.61,3.17,3.17,0,0,1,1.54,1,2.06,2.06,0,0,1,.43,1.28,5.58,5.58,0,0,1-.65,2.51q-.65,1.29-2.43,4.09L621,456,648.7,498a34.69,34.69,0,0,1,1.9,3.9A5.39,5.39,0,0,1,650.92,503.4Z" transform="translate(-453.78 -295.19)"/></svg>