<svg xmlns="http://www.w3.org/2000/svg" viewBox="0 0 193.35 193.35"><defs><style>.cls-1{fill:#fff;}.cls-2{fill:#faea25;}.cls-3{fill:#13499a;}</style></defs><g id="Capa_4" data-name="Capa 4"><rect className="cls-1" width="193.35" height="193.35"/></g><g id="Capa_3" data-name="Capa 3"><path className="cls-2" d="M143.52,87.15A57.12,57.12,0,1,1,86.4,30,57.12,57.12,0,0,1,143.52,87.15ZM86.4,34.92a52.23,52.23,0,1,0,52.23,52.23A52.22,52.22,0,0,0,86.4,34.92Z" transform="translate(11.68 11.68)"/><path className="cls-3" d="M74.53,166.16c-.32-3.36-.65-6.72-.94-10.08,0-.48-.14-.67-.67-.73a68.1,68.1,0,0,1-59-54.41,67.8,67.8,0,0,1,54-79.56c.84-.16,1.35.07,1.48.68.16.78-.29,1.12-.95,1.33A55.48,55.48,0,0,0,47.3,35.9,56.5,56.5,0,0,0,30.6,65.48a56.81,56.81,0,0,0,4.09,36.18A56.31,56.31,0,0,0,67,131a36.54,36.54,0,0,0,4.44,1.37c-.35-3.9-.7-7.73-1.06-11.73l31.57,20.12-6,5.57-21,19.54a3.55,3.55,0,0,0-.23.31Z" transform="translate(11.68 11.68)"/><path className="cls-3" d="M159.13,93.89a67.74,67.74,0,0,1-54.73,58.64c-.63.12-1.21.09-1.45-.63s.1-1.1,1-1.41A56.71,56.71,0,0,0,142,106.67,56.69,56.69,0,0,0,112.31,46a54.85,54.85,0,0,0-10.9-4.28.64.64,0,0,0-.52,0c.35,3.82.69,7.65,1,11.64L70.38,33.16c2.27-2.11,4.48-4.17,6.7-6.22C83.85,20.64,97.9,7.74,98,7.74c.36,3.32.24,2,.34,3q.32,3.48.66,7c0,.47.31.55.69.59q3.39.42,6.74,1.13a65.57,65.57,0,0,1,14.2,4.84,67,67,0,0,1,15.6,10.12,68.48,68.48,0,0,1,15,18.42,67.05,67.05,0,0,1,6.3,15.46,49.63,49.63,0,0,1,1.92,11.23c0,.39.06,3.35.06,3.69v5.11C159.49,88.72,159.25,92.93,159.13,93.89Z" transform="translate(11.68 11.68)"/><path className="cls-3" d="M105.64,105.92a1.22,1.22,0,0,1-.19.66,1.32,1.32,0,0,1-.71.48,6.53,6.53,0,0,1-1.44.28,20.67,20.67,0,0,1-2.29.1,21.17,21.17,0,0,1-3.16-.16,3.26,3.26,0,0,1-1.39-.51,2.56,2.56,0,0,1-.66-.81L82.58,85.21V106a1.06,1.06,0,0,1-.2.64,1.59,1.59,0,0,1-.71.46,6.07,6.07,0,0,1-1.35.28,18.49,18.49,0,0,1-2.17.1,18.28,18.28,0,0,1-2.14-.1,6,6,0,0,1-1.37-.28,1.73,1.73,0,0,1-.73-.46,1,1,0,0,1-.22-.64V64.77a1,1,0,0,1,.22-.64,1.54,1.54,0,0,1,.73-.44A6.1,6.1,0,0,1,76,63.42a18.28,18.28,0,0,1,2.14-.1,18.49,18.49,0,0,1,2.17.1,6.14,6.14,0,0,1,1.35.27,1.42,1.42,0,0,1,.71.44,1.06,1.06,0,0,1,.2.64V83.39L95.39,64.8a2.45,2.45,0,0,1,.58-.72,2.29,2.29,0,0,1,.88-.46,7,7,0,0,1,1.38-.24c.57,0,1.29-.06,2.17-.06a19.62,19.62,0,0,1,2.23.1,6.47,6.47,0,0,1,1.4.28,1.61,1.61,0,0,1,.73.46,1,1,0,0,1,.2.61,2.65,2.65,0,0,1-.3,1.18c-.21.41-.59,1-1.15,1.93l-12,15.71,13.08,19.77a15.18,15.18,0,0,1,.89,1.84A2.2,2.2,0,0,1,105.64,105.92Z" transform="translate(11.68 11.68)"/></g></svg>